<mxfile host="app.diagrams.net" agent="Mozilla/5.0 (Windows NT 10.0; Win64; x64) AppleWebKit/537.36 (KHTML, like Gecko) Chrome/138.0.0.0 Safari/537.36" version="28.0.9">
  <diagram name="Page-1" id="DEEFjsyMBdz_xcTsO5zJ">
    <mxGraphModel dx="872" dy="534" grid="1" gridSize="10" guides="1" tooltips="1" connect="1" arrows="1" fold="1" page="1" pageScale="1" pageWidth="827" pageHeight="1169" math="0" shadow="0">
      <root>
        <mxCell id="0" />
        <mxCell id="1" parent="0" />
        <mxCell id="4A4hcHnziD-pWjWTxIo6-1" value="" style="rounded=0;whiteSpace=wrap;html=1;fillColor=none;" vertex="1" parent="1">
          <mxGeometry x="40" y="30" width="760" height="300" as="geometry" />
        </mxCell>
        <mxCell id="4A4hcHnziD-pWjWTxIo6-2" value="" style="rounded=1;whiteSpace=wrap;html=1;fillColor=none;" vertex="1" parent="1">
          <mxGeometry x="100" y="60" width="290" height="250" as="geometry" />
        </mxCell>
        <mxCell id="4A4hcHnziD-pWjWTxIo6-3" value="" style="rounded=1;whiteSpace=wrap;html=1;fillColor=none;" vertex="1" parent="1">
          <mxGeometry x="470" y="60" width="290" height="250" as="geometry" />
        </mxCell>
        <mxCell id="4A4hcHnziD-pWjWTxIo6-4" value="Subnet 1" style="text;html=1;align=center;verticalAlign=middle;whiteSpace=wrap;rounded=0;" vertex="1" parent="1">
          <mxGeometry x="130" y="60" width="60" height="30" as="geometry" />
        </mxCell>
        <mxCell id="4A4hcHnziD-pWjWTxIo6-5" value="Subnet 2" style="text;html=1;align=center;verticalAlign=middle;whiteSpace=wrap;rounded=0;" vertex="1" parent="1">
          <mxGeometry x="490" y="60" width="60" height="30" as="geometry" />
        </mxCell>
        <mxCell id="4A4hcHnziD-pWjWTxIo6-6" value="Vnet" style="text;html=1;align=center;verticalAlign=middle;whiteSpace=wrap;rounded=0;" vertex="1" parent="1">
          <mxGeometry x="90" y="30" width="60" height="30" as="geometry" />
        </mxCell>
        <mxCell id="4A4hcHnziD-pWjWTxIo6-8" value="" style="aspect=fixed;sketch=0;html=1;dashed=0;whitespace=wrap;verticalLabelPosition=bottom;verticalAlign=top;fillColor=#2875E2;strokeColor=#ffffff;points=[[0.005,0.63,0],[0.1,0.2,0],[0.9,0.2,0],[0.5,0,0],[0.995,0.63,0],[0.72,0.99,0],[0.5,1,0],[0.28,0.99,0]];shape=mxgraph.kubernetes.icon2;kubernetesLabel=1;prIcon=user" vertex="1" parent="1">
          <mxGeometry x="389" y="360" width="70.83" height="68" as="geometry" />
        </mxCell>
        <mxCell id="4A4hcHnziD-pWjWTxIo6-11" value="" style="edgeStyle=orthogonalEdgeStyle;rounded=0;orthogonalLoop=1;jettySize=auto;html=1;" edge="1" parent="1" source="4A4hcHnziD-pWjWTxIo6-9" target="4A4hcHnziD-pWjWTxIo6-10">
          <mxGeometry relative="1" as="geometry" />
        </mxCell>
        <mxCell id="4A4hcHnziD-pWjWTxIo6-21" value="" style="edgeStyle=orthogonalEdgeStyle;rounded=0;orthogonalLoop=1;jettySize=auto;html=1;" edge="1" parent="1" source="4A4hcHnziD-pWjWTxIo6-9" target="4A4hcHnziD-pWjWTxIo6-16">
          <mxGeometry relative="1" as="geometry" />
        </mxCell>
        <mxCell id="4A4hcHnziD-pWjWTxIo6-9" value="" style="image;aspect=fixed;perimeter=ellipsePerimeter;html=1;align=center;shadow=0;dashed=0;spacingTop=3;image=img/lib/active_directory/internet_cloud.svg;" vertex="1" parent="1">
          <mxGeometry x="43.25" y="350" width="106.75" height="67.25" as="geometry" />
        </mxCell>
        <mxCell id="4A4hcHnziD-pWjWTxIo6-10" value="" style="shape=waypoint;sketch=0;size=6;pointerEvents=1;points=[];fillColor=default;resizable=0;rotatable=0;perimeter=centerPerimeter;snapToPoint=1;verticalAlign=top;labelBackgroundColor=default;shadow=0;dashed=0;spacingTop=3;" vertex="1" parent="1">
          <mxGeometry x="380" y="391.5" width="20" height="20" as="geometry" />
        </mxCell>
        <mxCell id="4A4hcHnziD-pWjWTxIo6-12" value="" style="image;aspect=fixed;html=1;points=[];align=center;fontSize=12;image=img/lib/azure2/compute/Virtual_Machine.svg;" vertex="1" parent="1">
          <mxGeometry x="150" y="98" width="69" height="64" as="geometry" />
        </mxCell>
        <mxCell id="4A4hcHnziD-pWjWTxIo6-13" value="" style="image;aspect=fixed;html=1;points=[];align=center;fontSize=12;image=img/lib/azure2/compute/Virtual_Machine.svg;" vertex="1" parent="1">
          <mxGeometry x="670" y="90" width="69" height="64" as="geometry" />
        </mxCell>
        <mxCell id="4A4hcHnziD-pWjWTxIo6-14" value="" style="image;aspect=fixed;html=1;points=[];align=center;fontSize=12;image=img/lib/azure2/compute/Disks.svg;" vertex="1" parent="1">
          <mxGeometry x="230" y="96" width="56.99999999999999" height="56.00000000000001" as="geometry" />
        </mxCell>
        <mxCell id="4A4hcHnziD-pWjWTxIo6-15" value="" style="image;aspect=fixed;html=1;points=[];align=center;fontSize=12;image=img/lib/azure2/compute/Disks.svg;" vertex="1" parent="1">
          <mxGeometry x="682" y="180" width="56.99999999999999" height="56.00000000000001" as="geometry" />
        </mxCell>
        <mxCell id="4A4hcHnziD-pWjWTxIo6-16" value="" style="image;aspect=fixed;html=1;points=[];align=center;fontSize=12;image=img/lib/azure2/networking/Public_IP_Addresses.svg;" vertex="1" parent="1">
          <mxGeometry x="120" y="249" width="65" height="52" as="geometry" />
        </mxCell>
        <mxCell id="4A4hcHnziD-pWjWTxIo6-17" value="" style="image;aspect=fixed;html=1;points=[];align=center;fontSize=12;image=img/lib/azure2/networking/Network_Security_Groups.svg;" vertex="1" parent="1">
          <mxGeometry x="230" y="236" width="56.00000000000001" height="68" as="geometry" />
        </mxCell>
        <mxCell id="4A4hcHnziD-pWjWTxIo6-18" value="" style="image;aspect=fixed;html=1;points=[];align=center;fontSize=12;image=img/lib/azure2/networking/Network_Security_Groups.svg;" vertex="1" parent="1">
          <mxGeometry x="494" y="220" width="56.00000000000001" height="68" as="geometry" />
        </mxCell>
        <mxCell id="4A4hcHnziD-pWjWTxIo6-28" value="" style="edgeStyle=orthogonalEdgeStyle;rounded=0;orthogonalLoop=1;jettySize=auto;html=1;" edge="1" parent="1" source="4A4hcHnziD-pWjWTxIo6-19" target="4A4hcHnziD-pWjWTxIo6-27">
          <mxGeometry relative="1" as="geometry" />
        </mxCell>
        <mxCell id="4A4hcHnziD-pWjWTxIo6-19" value="" style="image;aspect=fixed;html=1;points=[];align=center;fontSize=12;image=img/lib/azure2/networking/Network_Interfaces.svg;" vertex="1" parent="1">
          <mxGeometry x="300" y="140" width="68" height="60" as="geometry" />
        </mxCell>
        <mxCell id="4A4hcHnziD-pWjWTxIo6-26" value="" style="edgeStyle=orthogonalEdgeStyle;rounded=0;orthogonalLoop=1;jettySize=auto;html=1;" edge="1" parent="1" source="4A4hcHnziD-pWjWTxIo6-20" target="4A4hcHnziD-pWjWTxIo6-19">
          <mxGeometry relative="1" as="geometry" />
        </mxCell>
        <mxCell id="4A4hcHnziD-pWjWTxIo6-20" value="" style="image;aspect=fixed;html=1;points=[];align=center;fontSize=12;image=img/lib/azure2/networking/Network_Interfaces.svg;" vertex="1" parent="1">
          <mxGeometry x="480" y="140" width="68" height="60" as="geometry" />
        </mxCell>
        <mxCell id="4A4hcHnziD-pWjWTxIo6-22" value="" style="image;aspect=fixed;html=1;points=[];align=center;fontSize=12;image=img/lib/azure2/networking/Virtual_Networks.svg;" vertex="1" parent="1">
          <mxGeometry x="43.25" y="40" width="67" height="40" as="geometry" />
        </mxCell>
        <mxCell id="4A4hcHnziD-pWjWTxIo6-23" value="" style="image;aspect=fixed;html=1;points=[];align=center;fontSize=12;image=img/lib/azure2/networking/Subnet.svg;" vertex="1" parent="1">
          <mxGeometry x="110.25" y="80" width="33.4" height="20" as="geometry" />
        </mxCell>
        <mxCell id="4A4hcHnziD-pWjWTxIo6-24" value="" style="image;aspect=fixed;html=1;points=[];align=center;fontSize=12;image=img/lib/azure2/networking/Subnet.svg;" vertex="1" parent="1">
          <mxGeometry x="480" y="90" width="33.4" height="20" as="geometry" />
        </mxCell>
        <mxCell id="4A4hcHnziD-pWjWTxIo6-27" value="" style="shape=waypoint;sketch=0;size=6;pointerEvents=1;points=[];fillColor=default;resizable=0;rotatable=0;perimeter=centerPerimeter;snapToPoint=1;verticalAlign=top;labelBackgroundColor=default;" vertex="1" parent="1">
          <mxGeometry x="470" y="160" width="20" height="20" as="geometry" />
        </mxCell>
        <mxCell id="4A4hcHnziD-pWjWTxIo6-29" value="NIC1" style="text;html=1;align=center;verticalAlign=middle;whiteSpace=wrap;rounded=0;" vertex="1" parent="1">
          <mxGeometry x="308" y="115" width="60" height="30" as="geometry" />
        </mxCell>
        <mxCell id="4A4hcHnziD-pWjWTxIo6-30" value="NIC2" style="text;html=1;align=center;verticalAlign=middle;whiteSpace=wrap;rounded=0;" vertex="1" parent="1">
          <mxGeometry x="550" y="120" width="60" height="30" as="geometry" />
        </mxCell>
        <mxCell id="4A4hcHnziD-pWjWTxIo6-31" value="NSG2" style="text;html=1;align=center;verticalAlign=middle;whiteSpace=wrap;rounded=0;" vertex="1" parent="1">
          <mxGeometry x="560" y="240" width="60" height="30" as="geometry" />
        </mxCell>
        <mxCell id="4A4hcHnziD-pWjWTxIo6-32" value="NSG1" style="text;html=1;align=center;verticalAlign=middle;whiteSpace=wrap;rounded=0;" vertex="1" parent="1">
          <mxGeometry x="290" y="260" width="60" height="30" as="geometry" />
        </mxCell>
        <mxCell id="4A4hcHnziD-pWjWTxIo6-33" value="WebVM" style="text;html=1;align=center;verticalAlign=middle;whiteSpace=wrap;rounded=0;" vertex="1" parent="1">
          <mxGeometry x="143.65" y="165" width="60" height="30" as="geometry" />
        </mxCell>
        <mxCell id="4A4hcHnziD-pWjWTxIo6-34" value="APPVM&lt;div&gt;&lt;br&gt;&lt;/div&gt;" style="text;html=1;align=center;verticalAlign=middle;whiteSpace=wrap;rounded=0;" vertex="1" parent="1">
          <mxGeometry x="670" y="70" width="60" height="30" as="geometry" />
        </mxCell>
        <mxCell id="4A4hcHnziD-pWjWTxIo6-35" value="OSDISK" style="text;html=1;align=center;verticalAlign=middle;whiteSpace=wrap;rounded=0;" vertex="1" parent="1">
          <mxGeometry x="670" y="240" width="60" height="30" as="geometry" />
        </mxCell>
        <mxCell id="4A4hcHnziD-pWjWTxIo6-36" value="OS Disk" style="text;html=1;align=center;verticalAlign=middle;whiteSpace=wrap;rounded=0;" vertex="1" parent="1">
          <mxGeometry x="230" y="150" width="60" height="30" as="geometry" />
        </mxCell>
        <mxCell id="4A4hcHnziD-pWjWTxIo6-37" value="public ip&amp;nbsp;" style="text;html=1;align=center;verticalAlign=middle;whiteSpace=wrap;rounded=0;" vertex="1" parent="1">
          <mxGeometry x="122.5" y="219" width="60" height="30" as="geometry" />
        </mxCell>
      </root>
    </mxGraphModel>
  </diagram>
</mxfile>
